<svg id="applaud" enable-background="new 0 0 300 300" height="512" viewBox="0 0 300 300" width="512" xmlns="http://www.w3.org/2000/svg"><circle cx="150" cy="168.015" fill="#ffce56" r="86"/><path d="m196 197.847v-67.832c0-4.418 3.582-8 8-8 4.418 0 8 3.582 8 8v37.611l48 2.389v53.356c0 5.095-.803 10.227-2.947 14.849-6.4 13.799-19.799 19.569-33.519 19.76-19.552.272-36.862-12.728-43.635-31.071l-16.548-44.815c-1.936-3.258-1.124-7.45 1.889-9.749 3.167-2.415 7.672-1.919 10.237 1.127z" fill="#edebdc"/><path d="m222.936 261.985c-20.576.002-39.321-13.466-46.789-33.69l-16.435-44.508c-2.715-4.95-1.42-11.172 3.101-14.621 4.873-3.717 11.779-2.955 15.724 1.731l13.463 15.989v-56.871c0-6.617 5.383-12 12-12s12 5.383 12 12v33.805l44.199 2.2c2.129.106 3.801 1.863 3.801 3.995v53.356c0 6.223-1.116 11.785-3.317 16.531-6.396 13.791-19.917 21.838-37.093 22.078-.217.004-.438.005-.654.005zm-53.17-87.17c-.734 0-1.474.232-2.101.711-1.398 1.066-1.775 3.012-.876 4.524.124.21.229.43.313.658l16.548 44.814c6.375 17.264 22.417 28.699 39.828 28.458 19.14-.267 26.978-11.044 29.946-17.443 1.709-3.685 2.575-8.114 2.575-13.166v-49.551l-44.199-2.2c-2.129-.106-3.801-1.863-3.801-3.995v-37.61c0-2.206-1.794-4-4-4s-4 1.794-4 4v67.832c0 1.681-1.05 3.182-2.629 3.758s-3.348.104-4.431-1.182l-20.523-24.374c-.684-.812-1.662-1.234-2.65-1.234z" fill="#4c241d"/><path d="m212 184.11v-70.095c0-4.418 3.582-8 8-8 4.418 0 8 3.582 8 8v70.095" fill="#edebdc"/><path d="m228 188.11c-2.209 0-4-1.791-4-4v-70.095c0-2.206-1.794-4-4-4s-4 1.794-4 4v70.095c0 2.209-1.791 4-4 4s-4-1.791-4-4v-70.095c0-6.617 5.383-12 12-12s12 5.383 12 12v70.095c0 2.209-1.791 4-4 4z" fill="#4c241d"/><path d="m228 184.11v-54.095c0-4.418 3.582-8 8-8 4.418 0 8 3.582 8 8v54.095" fill="#edebdc"/><path d="m244 188.11c-2.209 0-4-1.791-4-4v-54.095c0-2.206-1.794-4-4-4s-4 1.794-4 4v54.095c0 2.209-1.791 4-4 4s-4-1.791-4-4v-54.095c0-6.617 5.383-12 12-12s12 5.383 12 12v54.095c0 2.209-1.791 4-4 4z" fill="#4c241d"/><path d="m244 182.918v-40.903c0-4.418 3.582-8 8-8 4.418 0 8 3.582 8 8v46.337" fill="#edebdc"/><path d="m260 192.352c-2.209 0-4-1.791-4-4v-46.337c0-2.206-1.794-4-4-4s-4 1.794-4 4v40.903c0 2.209-1.791 4-4 4s-4-1.791-4-4v-40.903c0-6.617 5.383-12 12-12s12 5.383 12 12v46.337c0 2.209-1.791 4-4 4z" fill="#4c241d"/><path d="m104 197.847v-67.832c0-4.418-3.582-8-8-8-4.418 0-8 3.582-8 8v37.611l-48 2.389v53.356c0 5.095.803 10.227 2.947 14.849 6.4 13.799 19.799 19.569 33.519 19.76 19.552.272 36.862-12.728 43.635-31.071l16.548-44.815c1.936-3.258 1.124-7.45-1.889-9.749-3.167-2.415-7.672-1.919-10.237 1.127z" fill="#edebdc"/><path d="m77.065 261.985c-.219 0-.437-.001-.655-.004-17.176-.24-30.696-8.287-37.093-22.077-2.201-4.747-3.317-10.31-3.317-16.532v-53.356c0-2.132 1.672-3.889 3.801-3.995l44.199-2.201v-33.805c0-6.617 5.383-12 12-12s12 5.383 12 12v56.871l13.464-15.989c3.945-4.686 10.852-5.446 15.723-1.732 4.521 3.45 5.816 9.672 3.102 14.622l-16.435 44.508c-7.467 20.223-26.214 33.69-46.789 33.69zm-33.065-88.164v49.551c0 5.052.866 9.481 2.575 13.166 2.969 6.399 10.807 17.177 29.946 17.443.182.003.363.004.544.004 17.235 0 32.976-11.377 39.284-28.462l16.548-44.814c.084-.229.189-.448.313-.658.899-1.513.522-3.458-.877-4.525-1.472-1.121-3.559-.892-4.751.524l-20.523 24.374c-1.08 1.286-2.85 1.758-4.431 1.182-1.579-.576-2.629-2.077-2.629-3.758v-67.832c0-2.206-1.794-4-4-4s-4 1.794-4 4v37.61c0 2.132-1.672 3.889-3.801 3.995z" fill="#4c241d"/><path d="m88 184.11v-70.095c0-4.418-3.582-8-8-8-4.418 0-8 3.582-8 8v70.095" fill="#edebdc"/><path d="m88 188.11c-2.209 0-4-1.791-4-4v-70.095c0-2.206-1.794-4-4-4s-4 1.794-4 4v70.095c0 2.209-1.791 4-4 4s-4-1.791-4-4v-70.095c0-6.617 5.383-12 12-12s12 5.383 12 12v70.095c0 2.209-1.791 4-4 4z" fill="#4c241d"/><path d="m72 184.11v-54.095c0-4.418-3.582-8-8-8-4.418 0-8 3.582-8 8v54.095" fill="#edebdc"/><path d="m72 188.11c-2.209 0-4-1.791-4-4v-54.095c0-2.206-1.794-4-4-4s-4 1.794-4 4v54.095c0 2.209-1.791 4-4 4s-4-1.791-4-4v-54.095c0-6.617 5.383-12 12-12s12 5.383 12 12v54.095c0 2.209-1.791 4-4 4z" fill="#4c241d"/><path d="m56 182.918v-40.903c0-4.418-3.582-8-8-8-4.418 0-8 3.582-8 8v46.337" fill="#edebdc"/><path d="m40 192.352c-2.209 0-4-1.791-4-4v-46.337c0-6.617 5.383-12 12-12s12 5.383 12 12v40.903c0 2.209-1.791 4-4 4s-4-1.791-4-4v-40.903c0-2.206-1.794-4-4-4s-4 1.794-4 4v46.337c0 2.209-1.791 4-4 4z" fill="#4c241d"/><g fill="#bd53b5"><path d="m120.611 71.97c-1.598 0-3.106-.964-3.725-2.54l-8.61-21.954c-.807-2.057.206-4.378 2.263-5.185 2.059-.809 4.379.208 5.185 2.263l8.61 21.954c.807 2.057-.206 4.378-2.263 5.185-.479.188-.974.277-1.46.277z"/><path d="m167.389 71.97c-.486 0-.979-.089-1.46-.277-2.057-.807-3.069-3.128-2.263-5.185l8.61-21.954c.807-2.056 3.126-3.069 5.185-2.263 2.057.807 3.069 3.128 2.263 5.185l-8.61 21.954c-.619 1.576-2.128 2.54-3.725 2.54z"/><path d="m144 70.015c-2.209 0-4-1.791-4-4v-24c0-2.209 1.791-4 4-4s4 1.791 4 4v24c0 2.209-1.791 4-4 4z"/></g></svg>